<?xml version="1.0" encoding="UTF-8"?>
<svg version="1.1" xmlns="http://www.w3.org/2000/svg" width="2000" height="2000">
<path d="M0 0 C1.22783203 1.40572266 1.22783203 1.40572266 2.48046875 2.83984375 C2.92060303 3.33863037 3.3607373 3.83741699 3.81420898 4.35131836 C5.10694111 5.81952808 6.3876891 7.29826291 7.66796875 8.77734375 C8.8553834 10.13158525 10.04287223 11.48576173 11.23046875 12.83984375 C11.78089844 13.4740625 12.33132813 14.10828125 12.8984375 14.76171875 C14.91911831 17.06342139 16.98109493 19.32498754 19.04296875 21.58984375 C22.98851884 25.95669834 26.70774912 30.47369267 30.41015625 35.046875 C33.35940014 38.61352116 36.4495645 42.03724424 39.5625 45.4609375 C43.57627901 49.87683909 47.48551918 54.38085869 51.34765625 58.9296875 C56.94238614 65.51052554 62.62531987 71.97500273 68.51171875 78.296875 C71.72766314 81.75103749 74.8731483 85.25169967 77.9609375 88.8203125 C80.00430306 91.16293525 82.08477734 93.47007797 84.16796875 95.77734375 C86.83845219 98.73604126 89.49094933 101.70660847 92.10546875 104.71484375 C95.75854831 108.91037596 99.51302424 113.01107928 103.26171875 117.12109375 C105.81945646 119.94457044 108.32566844 122.80790377 110.82421875 125.68359375 C113.07673332 128.24153402 115.37113967 130.75913355 117.66796875 133.27734375 C121.12440646 137.06743457 124.53640729 140.88790408 127.8984375 144.76171875 C129.91911831 147.06342139 131.98109493 149.32498754 134.04296875 151.58984375 C137.15325726 155.0311258 140.13275187 158.54055673 143.04296875 162.15234375 C146.32362748 166.21301924 149.73767595 170.08508839 153.29296875 173.90234375 C157.71511762 178.65437836 161.77914678 183.58153478 165.66796875 188.77734375 C167.66006683 191.35535302 169.61247529 193.72194663 171.91796875 196.0234375 C174.8702073 198.97986957 177.71491542 202.01543958 180.54296875 205.08984375 C181.33731323 205.95186401 181.33731323 205.95186401 182.14770508 206.83129883 C185.47232866 210.4491368 188.74582392 214.10454863 191.9609375 217.8203125 C194.00430306 220.16293525 196.08477734 222.47007797 198.16796875 224.77734375 C200.81910869 227.7141284 203.45087046 230.66336917 206.04296875 233.65234375 C209.02714011 237.08067084 212.09004304 240.43337324 215.16796875 243.77734375 C220.32710216 249.3875442 225.37738584 255.07191228 230.3046875 260.88671875 C235.52936199 267.03939163 240.82492641 273.0842876 246.35546875 278.96484375 C250.89650465 283.79327014 255.15032532 288.75528946 259.29296875 293.93359375 C262.13261331 297.33369447 265.13184974 300.5532082 268.16796875 303.77734375 C271.99004766 307.83611103 275.68234322 311.92031184 279.16796875 316.27734375 C283.72441659 321.96870018 288.67589096 327.24146657 293.66015625 332.5546875 C296.51022445 335.59528706 299.27285686 338.70082799 301.99609375 341.85546875 C304.02554948 344.18839449 306.09561575 346.4824562 308.16796875 348.77734375 C309.66839164 350.44362972 311.16840949 352.11028053 312.66796875 353.77734375 C313.3125 354.49277344 313.95703125 355.20820313 314.62109375 355.9453125 C315.51054687 356.94498047 315.51054687 356.94498047 316.41796875 357.96484375 C317.18367188 358.82142578 317.18367188 358.82142578 317.96484375 359.6953125 C318.526875 360.38238281 319.08890625 361.06945312 319.66796875 361.77734375 C320.5151928 362.78624573 321.36241686 363.79514772 322.23531437 364.83462249 C325.27515707 369.14124673 325.36800084 372.79162771 325.2935639 377.94291514 C325.30045126 378.85034878 325.30733861 379.75778243 325.31443467 380.69271406 C325.33146354 383.74399562 325.31278649 386.79401243 325.29438114 389.84527111 C325.29929222 392.06003851 325.30639495 394.27480195 325.3154951 396.4895561 C325.33421423 402.60650762 325.32160464 408.72306269 325.30410516 414.84000321 C325.29196194 420.79836516 325.30336473 426.75666985 325.31409693 432.71502422 C325.33547322 445.052989 325.33308442 457.39084773 325.31782913 469.72881699 C325.30245318 482.23451366 325.29792577 494.74014385 325.30668068 507.2458477 C325.30722606 508.03532611 325.30777144 508.82480452 325.30833335 509.63820652 C325.31059131 512.85356801 325.31292787 516.06892944 325.31536382 519.28429081 C325.33805246 549.24440502 325.3362161 579.20447105 325.31888008 609.16458702 C325.30218886 638.04376471 325.2940776 666.92292045 325.29810905 695.80210304 C325.29834942 697.61471188 325.29858861 699.42732072 325.29882663 701.23992956 C325.29979539 708.52383921 325.30081781 715.80774884 325.30191174 723.09165847 C325.30494066 743.45455506 325.30626346 763.81745158 325.30628109 784.1803484 C325.30628236 785.10769716 325.30628362 786.03504592 325.30628493 786.99049616 C325.30620479 816.54792345 325.29864975 846.10534395 325.28587437 875.66276836 C325.28546068 876.62167998 325.28504699 877.58059159 325.28462077 878.56856113 C325.27787696 894.14127611 325.27072337 909.7139909 325.26354154 925.28670568 C325.23508912 987.03970086 325.22911241 1048.79265455 325.24438477 1110.5456543 C325.24534419 1114.44719204 325.24630121 1118.34872978 325.24725748 1122.25026753 C325.24749395 1123.21490708 325.24773041 1124.17954663 325.24797405 1125.17341768 C325.25058684 1135.85634555 325.25311941 1146.53927343 325.25555515 1157.22220135 C325.25588488 1158.65919118 325.25588488 1158.65919118 325.25622126 1160.12521111 C325.26294368 1189.64693283 325.26466373 1219.16865116 325.26079464 1248.69037342 C325.26067318 1249.61711118 325.26055173 1250.54384893 325.26042659 1251.49866965 C325.25769849 1271.84190321 325.25363545 1292.18513637 325.24838094 1312.52836943 C325.24650254 1319.80739908 325.2446761 1327.08642875 325.2428554 1334.36545841 C325.24217114 1337.08029076 325.24146961 1339.79512311 325.24076788 1342.50995546 C325.23571229 1362.37031631 325.23339005 1382.23067258 325.23820233 1402.0910337 C325.23841901 1402.98616278 325.23863569 1403.88129186 325.23885894 1404.80354606 C325.23996778 1409.31050737 325.24112676 1413.81746866 325.24230734 1418.32442995 C325.25083312 1450.8922944 325.24664937 1483.46011323 325.21954025 1516.02796903 C325.21692558 1519.23592414 325.21437213 1522.44387929 325.21186638 1525.65183449 C325.21093465 1526.83277563 325.21093465 1526.83277563 325.2099841 1528.03757418 C325.20049975 1540.50794006 325.20438685 1552.97826433 325.21380923 1565.44862874 C325.22278551 1577.70837145 325.21747253 1589.96803897 325.19691684 1602.22776848 C325.18630425 1608.78690291 325.18245253 1615.34590781 325.19589538 1621.90504392 C325.20798696 1627.87070662 325.20171963 1633.83605599 325.18073529 1639.80169146 C325.17640943 1641.94772616 325.17879195 1644.09378742 325.18866971 1646.23980375 C325.26207605 1663.4445819 323.20532803 1677.94725162 310.91796875 1691.02734375 C297.72649413 1703.41933506 283.05655791 1705.37610622 265.78031158 1705.28070831 C263.86498958 1705.28488541 261.94967075 1705.29081379 260.03435892 1705.29832578 C254.77217182 1705.3138881 249.51027866 1705.30458965 244.2480964 1705.29121397 C238.52284894 1705.28106393 232.79764642 1705.29410811 227.07240534 1705.3041873 C217.03846515 1705.31863696 207.00461104 1705.318194 196.97066689 1705.30799866 C186.20701962 1705.29709155 175.44343364 1705.29467963 164.67978477 1705.302948 C163.65912109 1705.30372303 163.65912109 1705.30372303 162.61783793 1705.30451373 C159.84639397 1705.30664687 157.07495008 1705.30884171 154.30350623 1705.31111483 C128.50304298 1705.3322613 102.70261354 1705.33371178 76.90214539 1705.32252502 C76.13796126 1705.32219384 75.37377713 1705.32186266 74.58643591 1705.32152144 C73.82102702 1705.32118972 73.05561813 1705.32085801 72.26701503 1705.32051624 C48.94780676 1705.31042329 25.62861246 1705.30781803 2.30940247 1705.31260681 C0.7478035 1705.31291673 -0.81379547 1705.31322535 -2.37539444 1705.31353269 C-8.65082393 1705.31477456 -14.92625341 1705.31604923 -21.20168289 1705.31737175 C-38.74407173 1705.32103977 -56.28646061 1705.32332218 -73.82884979 1705.3245163 C-75.02710491 1705.32459817 -75.02710491 1705.32459817 -76.24956721 1705.3246817 C-101.70371598 1705.32631879 -127.15785989 1705.32181134 -152.61200714 1705.31311798 C-153.43758126 1705.31283698 -154.26315538 1705.31255599 -155.11374689 1705.31226648 C-168.52050963 1705.30768669 -181.92727226 1705.30280884 -195.33403489 1705.29790578 C-248.50672034 1705.27848046 -301.6793655 1705.27938207 -354.85205078 1705.29882812 C-368.25205227 1705.30371289 -381.65205376 1705.3085571 -395.05205536 1705.31311798 C-395.87714386 1705.31339977 -396.70223237 1705.31368157 -397.55232356 1705.3139719 C-422.97995392 1705.32259671 -448.40758093 1705.32625372 -473.83521271 1705.3245163 C-474.63346274 1705.32446196 -475.43171278 1705.32440762 -476.25415221 1705.32435164 C-493.77705641 1705.32310172 -511.29996025 1705.32056716 -528.8228641 1705.31687428 C-535.09268112 1705.31555772 -541.36249815 1705.3143054 -547.63231518 1705.31307144 C-549.19208028 1705.31276189 -550.75184537 1705.31244697 -552.31161047 1705.31212666 C-575.62457902 1705.30735236 -598.93753183 1705.3114179 -622.25049841 1705.32152144 C-623.3967746 1705.32201822 -623.3967746 1705.32201822 -624.56620789 1705.32252502 C-625.71036921 1705.32302112 -625.71036921 1705.32302112 -626.8776449 1705.32352723 C-652.60372201 1705.33455976 -678.32975857 1705.33050244 -704.05582988 1705.30940205 C-706.8185023 1705.30719264 -709.58117477 1705.30504582 -712.34384727 1705.302948 C-713.02185335 1705.30242717 -713.69985942 1705.30190634 -714.39841112 1705.30136973 C-725.78552528 1705.29300144 -737.17257288 1705.30041647 -748.55968457 1705.31198675 C-758.46294503 1705.32094076 -768.3661283 1705.31540217 -778.26937729 1705.29796767 C-783.91566354 1705.28843299 -789.56175861 1705.2852396 -795.20803899 1705.2995916 C-800.34533434 1705.31251692 -805.48226903 1705.30701768 -810.61953812 1705.28686896 C-812.46568977 1705.28284271 -814.31187133 1705.28549856 -816.15799922 1705.29569271 C-832.43253373 1705.37917708 -846.28738575 1702.57685922 -858.58203125 1691.02734375 C-868.95671221 1679.98332853 -872.98634281 1666.964734 -872.75097656 1652.03564453 C-872.7484639 1650.82433365 -872.74595123 1649.61302277 -872.74336243 1648.36500549 C-872.73408915 1645.08209698 -872.7077564 1641.79981856 -872.67608356 1638.51706934 C-872.6491866 1635.06460339 -872.65159666 1631.61218911 -872.652771 1628.15963745 C-872.65150708 1616.43170009 -872.60349582 1604.70419959 -872.52099609 1592.9765625 C-872.47559509 1586.4785595 -872.45894948 1579.98110246 -872.47297168 1573.48295009 C-872.47892858 1570.0528354 -872.46942129 1566.62427224 -872.42325592 1563.1944313 C-872.37780201 1559.37626999 -872.38120932 1555.56101365 -872.39550781 1551.74267578 C-872.35696434 1550.0500486 -872.35696434 1550.0500486 -872.31764221 1548.32322693 C-872.30349753 1542.58237738 -872.30349753 1542.58237738 -875.07209015 1537.78252792 C-877.09450413 1536.24761182 -879.10896173 1534.99707119 -881.33203125 1533.77734375 C-889.07765574 1528.17587227 -896.19649649 1522.3361353 -903.12890625 1515.76953125 C-905.39744629 1513.62265355 -907.72423626 1511.5659573 -910.09375 1509.53125 C-915.08284202 1505.19063286 -919.73081871 1500.52464316 -924.39453125 1495.83984375 C-925.25369141 1494.98455078 -926.11285156 1494.12925781 -926.99804688 1493.24804688 C-931.98503084 1488.25344338 -936.75850295 1483.15183267 -941.33203125 1477.77734375 C-942.27962636 1476.68591865 -943.22752646 1475.59475825 -944.17578125 1474.50390625 C-949.00258565 1468.88861725 -953.56422924 1463.2440991 -957.72265625 1457.10546875 C-959.34640798 1454.75654634 -961.0618415 1452.51749538 -962.83203125 1450.27734375 C-965.29719255 1447.13634048 -967.69482006 1443.96150863 -970.01953125 1440.71484375 C-970.55964844 1439.96074219 -971.09976563 1439.20664063 -971.65625 1438.4296875 C-973.00850123 1436.28941107 -974.11413594 1434.23512885 -975.2109375 1431.96484375 C-977.31493244 1427.66073738 -979.89648598 1423.79756372 -982.58203125 1419.83984375 C-987.73024488 1412.08135318 -991.73706478 1404.08157643 -995.51367188 1395.58837891 C-996.59335652 1393.19902905 -997.76499626 1390.86237431 -998.95703125 1388.52734375 C-999.75081396 1386.94507021 -1000.5424162 1385.36170123 -1001.33203125 1383.77734375 C-1001.7909375 1382.85695313 -1002.24984375 1381.9365625 -1002.72265625 1380.98828125 C-1007.07012335 1371.95012596 -1010.30002652 1362.62611882 -1013.52246094 1353.14111328 C-1014.65304133 1349.84006403 -1015.83467892 1346.55931201 -1017.01953125 1343.27734375 C-1020.0564165 1334.76607326 -1020.0564165 1334.76607326 -1021.51953125 1330.52734375 C-1021.82246094 1329.6559375 -1022.12539063 1328.78453125 -1022.4375 1327.88671875 C-1023.42128397 1324.46710285 -1024.09329332 1321.04824288 -1024.76733398 1317.55664062 C-1025.99347386 1311.52189079 -1027.54704898 1305.55705507 -1029.03320312 1299.58203125 C-1037.21645313 1266.09558621 -1041.65415468 1230.24031266 -1041.33203125 1195.77734375 C-1041.32518311 1194.99377502 -1041.31833496 1194.2102063 -1041.3112793 1193.40289307 C-1041.09427 1170.48265631 -1040.42880305 1147.61099634 -1038.33203125 1124.77734375 C-1038.20610596 1123.39506592 -1038.20610596 1123.39506592 -1038.07763672 1121.98486328 C-1037.16322835 1112.19120962 -1035.95314687 1102.48120483 -1034.33203125 1092.77734375 C-1034.12835937 1091.49601562 -1033.9246875 1090.2146875 -1033.71484375 1088.89453125 C-1032.24674623 1079.74144669 -1030.57824002 1070.63131344 -1028.83203125 1061.52734375 C-1028.63053467 1060.47522705 -1028.42903809 1059.42311035 -1028.22143555 1058.33911133 C-1025.83511135 1046.01855112 -1023.18916758 1033.80930922 -1019.93359375 1021.6875 C-1019.61675629 1020.49990585 -1019.29991882 1019.31231171 -1018.97348022 1018.08872986 C-1018.30796407 1015.59847963 -1017.64067854 1013.10870164 -1016.97167969 1010.61938477 C-1015.96081723 1006.85394643 -1014.95860202 1003.08627842 -1013.95703125 999.31835938 C-1011.01643155 988.31299434 -1008.07773027 977.35191937 -1004.31030273 966.59692383 C-1003.36933786 963.8848691 -1002.55474451 961.16291996 -1001.76953125 958.40234375 C-1000.86640748 955.31706573 -999.79581002 952.46745944 -998.4375 949.5546875 C-996.39264563 945.02483491 -994.77677321 940.42600223 -993.20703125 935.71484375 C-989.48037866 924.81162273 -985.0580798 914.23686407 -980.54443359 903.64013672 C-979.41131771 900.96455942 -978.29864299 898.28172269 -977.1953125 895.59375 C-973.60635008 886.87620471 -969.75412845 878.39213397 -965.4609375 870 C-962.99732141 865.16427025 -960.7041698 860.25043061 -958.39453125 855.33984375 C-954.57145373 847.24015308 -950.51800659 839.29980143 -946.2734375 831.4140625 C-944.76412093 828.60777755 -943.33657288 825.77515265 -941.95703125 822.90234375 C-939.03220324 816.94970082 -935.61007074 811.26679096 -932.25244141 805.55126953 C-929.79241404 801.35434763 -927.43974693 797.16252402 -925.33203125 792.77734375 C-924.67203125 792.77734375 -924.01203125 792.77734375 -923.33203125 792.77734375 C-923.14640625 791.99359375 -922.96078125 791.20984375 -922.76953125 790.40234375 C-921.13371862 786.27725103 -918.91648667 783.19365673 -916.32421875 779.6171875 C-914.19023137 776.5752094 -912.25631647 773.45578374 -910.33203125 770.27734375 C-907.39282667 765.43730223 -904.28426701 760.79581814 -900.9921875 756.19140625 C-899.26066972 753.6735757 -897.69415898 751.09804575 -896.14453125 748.46484375 C-894.09357646 744.98525555 -891.93895836 741.87306969 -889.33203125 738.77734375 C-888.38834378 737.53200837 -887.45151386 736.28146283 -886.51953125 735.02734375 C-883.7111402 731.26381463 -880.83881846 727.55383498 -877.9453125 723.85546875 C-877.14673828 722.82679688 -877.14673828 722.82679688 -876.33203125 721.77734375 C-875.81147942 721.17437272 -875.2909276 720.57140169 -874.75460147 719.9501588 C-873.06600199 717.37101416 -872.9572101 715.99241682 -872.9576264 712.93417788 C-872.95047601 711.95353971 -872.94332561 710.97290154 -872.93595853 709.96254706 C-872.94337862 708.88553039 -872.95079871 707.80851371 -872.95844364 706.69886017 C-872.95449212 705.54974584 -872.9505406 704.40063152 -872.94646934 703.21669555 C-872.93849045 700.01235431 -872.94402283 696.80835628 -872.95509891 693.60403446 C-872.96382668 690.12346105 -872.95515631 686.64292522 -872.94863075 683.16235304 C-872.93957851 677.05712129 -872.94163484 670.95197104 -872.95087242 664.84674072 C-872.96453302 655.76780993 -872.96099745 646.68894363 -872.95370796 637.61000837 C-872.9418533 622.33598915 -872.94338612 607.06199929 -872.9519062 591.78797913 C-872.96332309 570.92474742 -872.95418155 550.06155998 -872.9393444 529.19833225 C-872.93245059 519.48207292 -872.9265089 509.76581299 -872.92076778 500.04955292 C-872.91990267 498.59039691 -872.91990267 498.59039691 -872.91902009 497.101763 C-872.90548676 473.93698384 -872.90090847 450.7722045 -872.89819336 427.60742188 C-872.89800864 426.08673331 -872.89800864 426.08673331 -872.89782018 424.53532376 C-872.89510589 401.91450737 -872.89419046 379.29369128 -872.89524384 356.67287475 C-872.89566862 347.44532796 -872.89597614 338.21778117 -872.89624023 328.99023438 C-872.89627301 327.97819922 -872.89630579 326.96616406 -872.89633956 325.92346118 C-872.89702533 302.8154633 -872.89441461 279.70747364 -872.88008785 256.59947968 C-872.87948618 255.62804983 -872.87888451 254.65661999 -872.87826461 253.65575288 C-872.87216665 243.95697042 -872.86539951 234.25818864 -872.85767908 224.55940733 C-872.84120322 203.72241088 -872.83518465 182.88548847 -872.85051843 162.04848962 C-872.86150107 146.85425571 -872.8586036 131.66007806 -872.84132738 116.46584946 C-872.83153527 107.4389603 -872.83299065 98.41223378 -872.85046988 89.3853554 C-872.86106409 83.35310437 -872.85715866 77.32097443 -872.84156645 71.28873457 C-872.83310769 67.85321378 -872.8309025 64.41801079 -872.84648246 60.98250777 C-872.85992615 57.27556374 -872.84872112 53.56946662 -872.83146 49.86255646 C-872.84122125 48.80426911 -872.8509825 47.74598176 -872.86103955 46.6556251 C-872.73269225 33.35192198 -867.69197844 21.22502946 -858.58203125 11.52734375 C-846.95749726 0.60732697 -833.58218219 -2.83737426 -817.96668243 -2.73325825 C-816.54521651 -2.7382387 -815.12375585 -2.74496746 -813.70230544 -2.75326839 C-809.81136475 -2.7709674 -805.92080766 -2.76400027 -802.02985729 -2.75286159 C-797.79119574 -2.74515575 -793.55260748 -2.76069318 -789.31396627 -2.77323645 C-781.89038468 -2.79201794 -774.46690974 -2.7960347 -767.04330826 -2.79031181 C-756.00454886 -2.78186264 -744.96590171 -2.79630056 -733.92715975 -2.81534985 C-715.35600417 -2.84673065 -696.7848795 -2.85943748 -678.21369934 -2.86133766 C-659.82475871 -2.86325113 -641.43585069 -2.87298117 -623.04692078 -2.89328575 C-621.33134518 -2.89517052 -621.33134518 -2.89517052 -619.58111149 -2.89709337 C-614.93855369 -2.9022207 -610.29599597 -2.9074077 -605.65343833 -2.91267212 C-563.34936708 -2.96064001 -521.04530513 -2.98962677 -478.74121094 -3.0065918 C-438.78741915 -3.02262939 -398.8336573 -3.04988777 -358.87988281 -3.09057617 C-357.6485032 -3.09182719 -356.41712358 -3.0930782 -355.14842943 -3.09436713 C-348.94637871 -3.10067011 -342.744328 -3.10699167 -336.54227731 -3.1133198 C-335.31846553 -3.11456828 -334.09465375 -3.11581676 -332.83375677 -3.11710307 C-330.36603637 -3.11962273 -327.89831597 -3.12214637 -325.43059558 -3.12467401 C-286.16720123 -3.16483848 -246.90379981 -3.19666589 -207.64039627 -3.22633246 C-196.13888326 -3.2350347 -184.63737067 -3.24404824 -173.13585854 -3.25384736 C-148.94911711 -3.27435139 -124.76237994 -3.29210436 -100.57563084 -3.30038021 C-90.57023183 -3.30386799 -80.56483975 -3.30885298 -70.55944443 -3.31831932 C-62.2698018 -3.32615545 -53.98016637 -3.33068763 -45.69051987 -3.33060428 C-41.51304093 -3.33065663 -37.33557901 -3.33230906 -33.158104 -3.33829973 C-29.36300715 -3.343702 -25.56793862 -3.34453792 -21.77283929 -3.34162213 C-19.75427824 -3.34127102 -17.73571821 -3.34586378 -15.71716273 -3.35061744 C-14.52724565 -3.34877866 -13.33732857 -3.34693989 -12.1113534 -3.34504539 C-11.08394223 -3.34555425 -10.05653107 -3.34606312 -8.99798623 -3.34658741 C-4.89612227 -3.15590574 -3.01703951 -2.87553682 0 0 Z M-873.33203125 815.77734375 C-876.38304537 821.54037042 -878.75595014 827.39520129 -881.05078125 833.49609375 C-882.19316867 836.42172006 -883.43443077 839.24847607 -884.76953125 842.08984375 C-887.66985425 848.36639414 -890.06377786 854.80547546 -892.42822266 861.296875 C-893.07098066 863.06090021 -893.71681364 864.82380631 -894.36474609 866.5859375 C-901.62995847 886.35399876 -908.19976415 906.18068277 -913.64453125 926.52734375 C-913.98234619 927.78893311 -914.32016113 929.05052246 -914.66821289 930.3503418 C-916.45366932 937.12748431 -918.04033933 943.89026732 -919.33203125 950.77734375 C-919.64033813 952.30631085 -919.95024306 953.83495654 -920.26171875 955.36328125 C-925.13291997 979.81896038 -928.71271303 1004.65560446 -929.8359375 1029.58203125 C-929.87748962 1030.48883133 -929.91904175 1031.39563141 -929.96185303 1032.32991028 C-930.0886858 1035.14558264 -930.21119882 1037.96140793 -930.33203125 1040.77734375 C-930.36944427 1041.63776276 -930.4068573 1042.49818176 -930.44540405 1043.38467407 C-932.02006483 1080.34539996 -930.4702793 1116.63079195 -924.73266602 1153.20019531 C-924.41368562 1155.25208874 -924.1270325 1157.30900107 -923.8515625 1159.3671875 C-922.448478 1168.57690755 -920.30235586 1177.67593363 -918.33203125 1186.77734375 C-918.11949707 1187.77652832 -917.90696289 1188.77571289 -917.68798828 1189.80517578 C-913.89520961 1207.44145038 -908.39191935 1224.35842899 -902.49780273 1241.37915039 C-901.55165811 1244.1371372 -900.64696663 1246.90190289 -899.76171875 1249.6796875 C-898.24712608 1254.24117063 -896.24137289 1258.52073937 -894.14453125 1262.83984375 C-893.75015869 1263.66057373 -893.35578613 1264.48130371 -892.94946289 1265.3269043 C-891.75055604 1267.8138016 -890.54256973 1270.2960909 -889.33203125 1272.77734375 C-888.80270996 1273.86885742 -888.80270996 1273.86885742 -888.26269531 1274.98242188 C-883.65163942 1284.47030058 -878.67542308 1293.68220872 -873.33203125 1302.77734375 C-873.00203125 1302.77734375 -872.67203125 1302.77734375 -872.33203125 1302.77734375 C-872.33203125 1142.06734375 -872.33203125 981.35734375 -872.33203125 815.77734375 C-872.66203125 815.77734375 -872.99203125 815.77734375 -873.33203125 815.77734375 Z " fill="#212120" transform="translate(1278.33203125,145.22265625)"/>
<path d="M0 0 C0.33 0 0.66 0 1 0 C1.09278504 12.63938414 1.16380844 25.27868691 1.20724869 37.91834259 C1.22810055 43.78780672 1.25637482 49.6570374 1.30175781 55.52636719 C1.34530047 61.19331652 1.36915517 66.86004164 1.37950897 72.52714539 C1.38688517 74.68645251 1.40128917 76.84574773 1.42292023 79.00495911 C1.45206559 82.03547437 1.45595128 85.06506968 1.45410156 88.09570312 C1.46848267 88.98331329 1.48286377 89.87092346 1.49768066 90.78543091 C1.4578175 96.84309925 -0.01017576 100.79479726 -3 106 C-3.84509285 108.09128948 -4.65997604 110.19515966 -5.4375 112.3125 C-6.97142936 116.39050732 -8.58476553 120.369501 -10.4375 124.3125 C-13.337823 130.58905039 -15.73174661 137.02813171 -18.09619141 143.51953125 C-18.73894941 145.28355646 -19.38478239 147.04646256 -20.03271484 148.80859375 C-27.29792722 168.57665501 -33.8677329 188.40333902 -39.3125 208.75 C-39.65031494 210.01158936 -39.98812988 211.27317871 -40.33618164 212.57299805 C-42.12163807 219.35014056 -43.70830808 226.11292357 -45 233 C-45.30830688 234.5289671 -45.61821181 236.05761279 -45.9296875 237.5859375 C-50.80088872 262.04161663 -54.38068178 286.87826071 -55.50390625 311.8046875 C-55.56623444 313.16488762 -55.56623444 313.16488762 -55.62982178 314.55256653 C-55.75665455 317.36823889 -55.87916757 320.18406418 -56 323 C-56.03741302 323.86041901 -56.07482605 324.72083801 -56.1133728 325.60733032 C-57.68803358 362.56805621 -56.13824805 398.8534482 -50.40063477 435.42285156 C-50.08165437 437.47474499 -49.79500125 439.53165732 -49.51953125 441.58984375 C-48.11644675 450.7995638 -45.97032461 459.89858988 -44 469 C-43.78746582 469.99918457 -43.57493164 470.99836914 -43.35595703 472.02783203 C-39.56317836 489.66410663 -34.0598881 506.58108524 -28.16577148 523.60180664 C-27.21962686 526.35979345 -26.31493538 529.12455914 -25.4296875 531.90234375 C-23.91511624 536.4637624 -21.90972939 540.74363698 -19.8125 545.0625 C-19.41450195 545.88903076 -19.01650391 546.71556152 -18.60644531 547.56713867 C-17.79266145 549.25248699 -16.97612166 550.93650756 -16.15673828 552.61914062 C-15.12329667 554.74622432 -14.10461786 556.87959809 -13.08984375 559.015625 C5.34030595 597.33816737 31.72751362 630.71400525 66 656 C67.56041016 657.15628906 67.56041016 657.15628906 69.15234375 658.3359375 C89.92530609 673.17199341 114.1238055 683.39955428 138 692 C138.9374707 692.33966797 139.87494141 692.67933594 140.84082031 693.02929688 C146.84683467 695.18011417 152.89442374 697.15160407 159 699 C159.94891113 699.2882666 160.89782227 699.5765332 161.87548828 699.87353516 C188.60267536 707.84693595 216.27751835 712.25577571 244 715 C245.26954781 715.13160522 245.26954781 715.13160522 246.56474304 715.26586914 C255.32558506 716.09452646 264.05009898 716.16377614 272.83984375 716.16796875 C274.45390348 716.17119437 276.06796293 716.17455934 277.68202209 716.17805481 C281.05307693 716.184007 284.4241063 716.18589895 287.79516602 716.18530273 C291.20732964 716.18522176 294.61935821 716.19212398 298.03149414 716.20581055 C316.12070901 716.27728119 334.02794394 716.34108089 352 714 C353.13767822 713.86891846 354.27535645 713.73783691 355.44750977 713.6027832 C358.23943235 713.27913127 361.02575637 712.92775156 363.8125 712.5625 C365.82027945 712.30443024 367.82809307 712.04662622 369.8359375 711.7890625 C371.34559082 711.59425293 371.34559082 711.59425293 372.88574219 711.39550781 C376.1019898 710.98704739 379.3200161 710.59668704 382.5390625 710.2109375 C383.61051514 710.08130615 384.68196777 709.9516748 385.78588867 709.81811523 C387.82212146 709.57220254 389.85872267 709.32931317 391.89575195 709.09008789 C396.94168127 708.47436827 401.85050245 707.66841084 406.79907227 706.5065918 C410.67577251 705.6142842 414.59002504 704.91705801 418.5 704.1875 C443.39275305 699.60291597 443.39275305 699.60291597 467.95556641 693.56103516 C470.3314318 692.90904821 472.71675003 692.30241287 475.10546875 691.69921875 C488.85578573 688.21759487 502.38611938 684.19528234 515.91992188 679.95507812 C520.57972567 678.51015482 525.25892078 677.13260098 529.9375 675.75 C535.70913678 674.03197593 541.40727953 672.23117778 547.04296875 670.1015625 C550.13435336 668.94995027 553.24396197 667.86513585 556.36132812 666.78637695 C565.44625158 663.64013404 574.49452085 660.39508341 583.5249939 657.09622192 C584.82122836 656.62287011 586.11778813 656.15040796 587.41470337 655.67892456 C595.70631544 652.6623104 603.88053482 649.45153295 612 646 C613.88225479 645.21220782 615.76506598 644.42574368 617.6484375 643.640625 C618.57986572 643.25173096 619.51129395 642.86283691 620.47094727 642.4621582 C621.42928467 642.062146 622.38762207 641.66213379 623.375 641.25 C624.91595337 640.60647583 624.91595337 640.60647583 626.48803711 639.94995117 C632.56891345 637.41504959 638.66246264 634.91490984 644.76953125 632.44384766 C653.10280341 629.06828968 661.31236722 625.55341873 669.42578125 621.6796875 C673.27272033 619.87183635 677.15857111 618.17970023 681.0625 616.5 C687.15067264 613.86637271 693.08430281 611.00881153 699 608.00390625 C703.98344307 605.48768021 709.02439158 603.09184318 714.0625 600.6875 C715.52405518 599.98898926 715.52405518 599.98898926 717.01513672 599.27636719 C722.00570616 596.89444869 727.00230786 594.52615651 732.0078125 592.17578125 C732.96292725 591.72565674 733.91804199 591.27553223 734.90209961 590.81176758 C736.71618221 589.95743628 738.53202042 589.10681979 740.34985352 588.26049805 C741.16639404 587.87547119 741.98293457 587.49044434 742.82421875 587.09375 C743.89289185 586.59391602 743.89289185 586.59391602 744.9831543 586.08398438 C747.16923083 584.90904432 749.02491971 583.49826026 751 582 C753.48710687 580.68642666 755.97361658 579.41983125 758.5 578.1875 C759.56359741 577.66192505 759.56359741 577.66192505 760.64868164 577.12573242 C762.76416857 576.08049747 764.88192433 575.03997668 767 574 C774.09895033 570.49535173 781.12274435 566.92489843 788 563 C781.10806026 557.13565025 773.79193493 552.05609815 766.30541992 546.99145508 C761.29232944 543.5918966 756.35857951 540.1165516 751.5 536.5 C746.01013553 532.41769786 740.41514647 528.52250987 734.75 524.6875 C727.40683761 519.71309967 720.24653537 514.53638443 713.13476562 509.23779297 C706.81219696 504.54798987 700.35224213 500.09059544 693.83496094 495.67700195 C688.46126979 492.02819247 683.20452355 488.2553625 677.9921875 484.38085938 C671.22843481 479.37999968 664.30401187 474.61076202 657.38183594 469.83276367 C650.8500565 465.31728153 644.39296534 460.7101881 638 456 C637.35893311 455.52836426 636.71786621 455.05672852 636.05737305 454.57080078 C631.70170173 451.18735994 630.31353436 448.45601919 629.625 443.0625 C630.20560137 438.32092211 632.5101584 435.35016895 636 432.1875 C640.62123281 429.44364302 645.25137004 430.03114588 650.44433594 430.37207031 C652.16986103 430.47385301 653.89540706 430.57528132 655.62097168 430.6763916 C656.51184982 430.73049698 657.40272797 430.78460236 658.32060242 430.84034729 C690.96945017 432.78573869 723.57730134 433.33618249 756.27796173 433.25774765 C759.81687992 433.24985076 763.35578951 433.24536862 766.89471436 433.24160767 C803.64343854 433.19625267 840.32748755 432.73242598 877.04553223 431.16790771 C880.52304241 431.02025174 884.00067049 430.87633267 887.47841072 430.73425198 C897.15298757 430.33892957 906.82672539 429.92595938 916.5 429.5 C917.18703255 429.46990719 917.87406509 429.43981438 918.58191681 429.40880966 C933.50636426 428.75325942 948.39767695 427.95420691 963.2880249 426.74598694 C977.33354905 425.62154649 991.40608963 424.9653335 1005.47705078 424.24731445 C1009.08380802 424.0621641 1012.69033944 423.87300521 1016.296875 423.68359375 C1017.38740173 423.62940781 1018.47792847 423.57522186 1019.60150146 423.51939392 C1024.48126301 423.26248169 1029.18594382 422.87340104 1034 422 C1036.13061697 421.82715585 1038.26395687 421.68605436 1040.3984375 421.5703125 C1042.29480957 421.46299805 1042.29480957 421.46299805 1044.22949219 421.35351562 C1045.2394928 421.29804565 1045.2394928 421.29804565 1046.26989746 421.24145508 C1072.57313621 419.78634984 1098.87288829 417.91293569 1125.08642578 415.29003906 C1130.95062526 414.7062726 1136.81592994 414.13613565 1142.68313599 413.58349609 C1144.11265488 413.44751635 1145.54193229 413.30896614 1146.97091675 413.16748047 C1174.96817574 410.39782865 1174.96817574 410.39782865 1179.875 414.375 C1183.33064715 418.64374059 1183.47777195 421.67096573 1183.38671875 427.078125 C1182.71789295 432.13147548 1180.21326155 435.16210443 1177 439 C1176.36408936 439.76352783 1176.36408936 439.76352783 1175.71533203 440.54248047 C1172.70475825 444.14150846 1169.63563596 447.68708627 1166.54931641 451.22119141 C1157.34618825 461.78753111 1148.56247777 472.67863263 1139.88671875 483.6796875 C1135.55420404 489.15139344 1131.05822978 494.46100883 1126.50317383 499.74707031 C1118.98525122 508.48247508 1111.80952279 517.46519696 1104.7734375 526.59082031 C1099.45694119 533.47350668 1094.06634207 540.16774672 1088.1796875 546.578125 C1084.28124802 550.90972443 1080.66334887 555.46984838 1077 560 C1075.43795774 561.8962105 1073.87546252 563.79204796 1072.3125 565.6875 C1069.85941921 568.68008996 1067.46400355 571.68397173 1065.1875 574.8125 C1061.88567561 579.28830639 1058.22920526 583.45038 1054.59448242 587.65551758 C1050.76886986 592.08539164 1047.0485197 596.58912103 1043.36328125 601.13671875 C1040.0336591 605.17078988 1036.60827734 609.12153659 1033.16015625 613.0546875 C1030.9225617 615.63330582 1028.89856778 618.15214833 1027 621 C1024.67974454 624.48038319 1022.06557159 627.54722959 1019.3125 630.6875 C1015.66660208 634.89014161 1012.06072638 639.1100644 1008.5625 643.4375 C1004.95771252 647.887774 1001.21498653 652.19718907 997.4375 656.5 C992.94400873 661.62713091 988.82487826 666.86835695 984.89453125 672.4453125 C981.58196177 676.91215877 977.77103878 680.92098165 974 685 C967.0398539 692.75687988 960.50106364 700.85751472 954 709 C952.66698733 710.66692314 951.33364789 712.33358503 950 714 C949.30261719 714.87398437 948.60523438 715.74796875 947.88671875 716.6484375 C943.46981699 722.12445424 938.88143181 727.36446198 934.09326172 732.51245117 C930.25025855 736.66706738 926.6698962 741.00103805 923.12109375 745.41015625 C921.09994131 747.87797222 919.01247593 750.25777618 916.875 752.625 C914.34224168 755.4364115 911.96892691 758.29408008 909.6875 761.3125 C906.43189718 765.57667226 902.84948457 769.48988774 899.19482422 773.40844727 C896.09326895 776.75279301 893.16784992 780.18944276 890.3125 783.75 C887.05652719 787.80110343 883.61198056 791.43920747 879.88671875 795.0546875 C877.97728042 797.02342515 876.33860777 799.06159587 874.6875 801.25 C870.97672729 806.16656155 866.82743435 810.63469689 862.640625 815.140625 C860.46422386 817.49731973 858.34192856 819.88133978 856.25 822.3125 C853.54659405 825.4342902 850.68384083 828.33457448 847.7421875 831.23046875 C845.33511907 833.67531628 843.10565429 836.2561773 840.86328125 838.8515625 C837.30349372 842.95613931 833.65061607 846.97628638 830 851 C828.70835937 852.43279297 828.70835937 852.43279297 827.390625 853.89453125 C821.2370216 860.67475026 814.8831585 867.24710678 808.4375 873.75 C807.65125244 874.54921875 806.86500488 875.3484375 806.05493164 876.171875 C805.31364014 876.914375 804.57234863 877.656875 803.80859375 878.421875 C803.14657959 879.08799805 802.48456543 879.75412109 801.80249023 880.44042969 C799.26952526 882.63202934 797.101034 882.98613259 793.8125 883.4375 C788.61442421 882.8409995 785.68071534 880.62037574 782 877 C778.17435646 870.78332924 780.15577401 863.28575968 781.72265625 856.5859375 C781.90332642 855.78720215 782.08399658 854.9884668 782.2701416 854.16552734 C782.8601732 851.56692827 783.461168 848.97100514 784.0625 846.375 C784.47763011 844.55691701 784.89225737 842.73871914 785.30639648 840.92041016 C787.90218743 829.56455892 790.62753233 818.24435222 793.40893555 806.93261719 C795.96652044 796.4035388 798.17814986 785.81223485 800.37677002 775.20397949 C803.24916073 761.36216247 806.34849967 747.58375953 809.55834961 733.81665039 C809.93477706 732.20199593 810.31116032 730.58733117 810.6875 728.97265625 C810.87482193 728.16925308 811.06214386 727.36584991 811.25514221 726.5381012 C813.93379494 715.02191321 816.50335922 703.48085112 819.08178711 691.94189453 C819.26269897 691.13389908 819.44361084 690.32590363 819.63000488 689.49342346 C819.96456743 687.99894571 820.29830337 686.50428253 820.63098145 685.00938416 C821.68102341 680.31986517 822.81934869 675.65840753 824 671 C823.48614746 671.37286133 822.97229492 671.74572266 822.44287109 672.12988281 C820.08776811 673.83776978 817.73139539 675.54389667 815.375 677.25 C814.16263672 678.12978516 814.16263672 678.12978516 812.92578125 679.02734375 C809.54088287 681.47657916 806.16632556 683.8917131 802.6640625 686.171875 C800.01559059 687.86269576 800.01559059 687.86269576 798.16357422 689.87768555 C795.83071521 692.1660565 793.41110679 693.93498872 790.71875 695.78515625 C789.71199219 696.48060547 788.70523438 697.17605469 787.66796875 697.89257812 C786.09982422 698.96668945 786.09982422 698.96668945 784.5 700.0625 C782.42668201 701.49030283 780.35374992 702.91866623 778.28125 704.34765625 C777.36408203 704.97679932 776.44691406 705.60594238 775.50195312 706.25415039 C773.90272198 707.37008539 772.32976293 708.52531092 770.79492188 709.72827148 C769 711 769 711 767 711 C767 711.66 767 712.32 767 713 C764.74410505 714.67820319 762.48678381 716.23116187 760.1328125 717.76171875 C759.06968338 718.46504082 759.06968338 718.46504082 757.9850769 719.18257141 C755.70262552 720.69076317 753.41408683 722.18940275 751.125 723.6875 C748.87898971 725.16560845 746.6342833 726.64567617 744.38996887 728.12635803 C742.92824467 729.09068807 741.4659141 730.05409961 740.00297546 731.0165863 C736.15575476 733.55294064 732.34845639 736.12991416 728.58984375 738.796875 C723.67368233 742.27724648 718.58023382 745.43000453 713.4375 748.5625 C708.42315747 751.62539394 703.42264736 754.68634728 698.55078125 757.97265625 C693.38828215 761.44679086 688.07604744 764.6593066 682.75 767.875 C680.69901106 769.11684454 678.6482281 770.35902936 676.59765625 771.6015625 C675.6245752 772.19098633 674.65149414 772.78041016 673.64892578 773.38769531 C670.47912625 775.31703689 667.33309186 777.28149424 664.1875 779.25 C651.78401969 786.8928756 638.83500363 793.65515151 626.03564453 800.60400391 C621.27097726 803.19525565 616.5355503 805.82511332 611.83642578 808.53320312 C603.47074826 813.34309125 594.85309272 817.49364981 586.1171875 821.5859375 C581.58108386 823.71292241 577.09529484 825.92608925 572.625 828.1875 C559.18403464 834.95401912 545.48966983 841.0166018 531.63574219 846.88134766 C529.12108273 847.9486105 526.61084417 849.02563409 524.1015625 850.10546875 C514.65439949 854.15259032 505.13551889 857.87999 495.46484375 861.359375 C492.46086111 862.44397325 489.50587865 863.60776673 486.5546875 864.828125 C479.67351593 867.60316573 472.62037624 869.88034998 465.57885742 872.20898438 C463.20180765 872.9952673 460.82638261 873.78630622 458.45117188 874.578125 C436.1257318 882.0032093 436.1257318 882.0032093 425.0625 884.875 C420.61339196 886.03663502 416.17764907 887.22554585 411.75390625 888.48046875 C401.82479523 891.28134388 392.01917957 893.75127198 381.82421875 895.359375 C377.50631731 896.08270068 373.26815209 897.0324307 369 898 C334.36909654 905.73709432 298.85527314 908.47895569 263.4375 908.4375 C262.28496735 908.43763092 261.13243469 908.43776184 259.94497681 908.43789673 C238.90228469 908.39477839 218.03240013 907.14607783 197.25 903.75 C196.58710968 903.64328979 195.92421936 903.53657959 195.24124146 903.42663574 C124.61449723 892.01992181 61.56783902 864.88676547 3 824 C2.13044678 823.39551025 1.26089355 822.79102051 0.36499023 822.16821289 C-10.33000952 814.71606445 -20.36433449 806.92130782 -29.83203125 797.95703125 C-32.08784692 795.82369359 -34.40240981 793.78048612 -36.7578125 791.7578125 C-41.74802484 787.41567969 -46.39748588 782.74860688 -51.0625 778.0625 C-51.92166016 777.20720703 -52.78082031 776.35191406 -53.66601562 775.47070312 C-58.65299959 770.47609963 -63.4264717 765.37448892 -68 760 C-68.94759511 758.9085749 -69.89549521 757.8174145 -70.84375 756.7265625 C-75.6705544 751.1112735 -80.23219799 745.46675535 -84.390625 739.328125 C-86.01437673 736.97920259 -87.72981025 734.74015163 -89.5 732.5 C-91.9651613 729.35899673 -94.36278881 726.18416488 -96.6875 722.9375 C-97.22761719 722.18339844 -97.76773438 721.42929688 -98.32421875 720.65234375 C-99.67646998 718.51206732 -100.78210469 716.4577851 -101.87890625 714.1875 C-103.98290119 709.88339363 -106.56445473 706.02021997 -109.25 702.0625 C-114.39821363 694.30400943 -118.40503353 686.30423268 -122.18164062 677.81103516 C-123.26132527 675.4216853 -124.43296501 673.08503056 -125.625 670.75 C-126.41878271 669.16772646 -127.21038495 667.58435748 -128 666 C-128.45890625 665.07960938 -128.9178125 664.15921875 -129.390625 663.2109375 C-133.7380921 654.17278221 -136.96799527 644.84877507 -140.19042969 635.36376953 C-141.32101008 632.06272028 -142.50264767 628.78196826 -143.6875 625.5 C-146.72438525 616.98872951 -146.72438525 616.98872951 -148.1875 612.75 C-148.49042969 611.87859375 -148.79335938 611.0071875 -149.10546875 610.109375 C-150.08925272 606.6897591 -150.76126207 603.27089913 -151.43530273 599.77929688 C-152.66144261 593.74454704 -154.21501773 587.77971132 -155.70117188 581.8046875 C-163.88442188 548.31824246 -168.32212343 512.46296891 -168 478 C-167.99315186 477.21643127 -167.98630371 476.43286255 -167.97924805 475.62554932 C-167.76223875 452.70531256 -167.0967718 429.83365259 -165 407 C-164.87407471 405.61772217 -164.87407471 405.61772217 -164.74560547 404.20751953 C-163.8311971 394.41386587 -162.62111562 384.70386108 -161 375 C-160.79632813 373.71867187 -160.59265625 372.43734375 -160.3828125 371.1171875 C-158.91471498 361.96410294 -157.24620877 352.85396969 -155.5 343.75 C-155.19775513 342.17182495 -155.19775513 342.17182495 -154.8894043 340.56176758 C-152.5030801 328.24120737 -149.85713633 316.03196547 -146.6015625 303.91015625 C-146.28472504 302.7225621 -145.96788757 301.53496796 -145.64144897 300.31138611 C-144.97593282 297.82113588 -144.30864729 295.33135789 -143.63964844 292.84204102 C-142.62878598 289.07660268 -141.62657077 285.30893467 -140.625 281.54101562 C-137.6844003 270.53565059 -134.74569902 259.57457562 -130.97827148 248.81958008 C-130.03730661 246.10752535 -129.22271326 243.38557621 -128.4375 240.625 C-127.53437623 237.53972198 -126.46377877 234.69011569 -125.10546875 231.77734375 C-123.06061438 227.24749116 -121.44474196 222.64865848 -119.875 217.9375 C-116.14834741 207.03427898 -111.72604855 196.45952032 -107.21240234 185.86279297 C-106.07928646 183.18721567 -104.96661174 180.50437894 -103.86328125 177.81640625 C-100.27431883 169.09886096 -96.4220972 160.61479022 -92.12890625 152.22265625 C-89.66529016 147.3869265 -87.37213855 142.47308686 -85.0625 137.5625 C-81.23942248 129.46280933 -77.18597534 121.52245768 -72.94140625 113.63671875 C-71.43208968 110.8304338 -70.00454163 107.9978089 -68.625 105.125 C-65.70017199 99.17235707 -62.27803949 93.48944721 -58.92041016 87.77392578 C-56.46038279 83.57700388 -54.10771568 79.38518027 -52 75 C-51.34 75 -50.68 75 -50 75 C-49.7215625 73.824375 -49.7215625 73.824375 -49.4375 72.625 C-47.80168737 68.49990728 -45.58445542 65.41631298 -42.9921875 61.83984375 C-40.85820012 58.79786565 -38.92428522 55.67843999 -37 52.5 C-34.06079542 47.65995848 -30.95223576 43.01847439 -27.66015625 38.4140625 C-25.92863847 35.89623195 -24.36212773 33.320702 -22.8125 30.6875 C-20.76154521 27.2079118 -18.60692711 24.09572594 -16 21 C-15.05631253 19.75466462 -14.11948261 18.50411908 -13.1875 17.25 C-10.37910895 13.48647088 -7.50678721 9.77649123 -4.61328125 6.078125 C-3.50341547 4.64846739 -2.41864639 3.19908529 -1.35546875 1.734375 C-0.90816406 1.16203125 -0.46085938 0.5896875 0 0 Z " fill="#FE9B00" transform="translate(405,863)"/>
<path d="M0 0 C4.32513678 0.84224849 5.90787194 2.73704394 8.8125 6.0625 C9.25263428 6.56128662 9.69276855 7.06007324 10.14624023 7.57397461 C11.43897236 9.04218433 12.71972035 10.52091916 14 12 C15.18741465 13.3542415 16.37490348 14.70841798 17.5625 16.0625 C18.11292969 16.69671875 18.66335938 17.3309375 19.23046875 17.984375 C21.25114956 20.28607764 23.31312618 22.54764379 25.375 24.8125 C29.32055009 29.17935459 33.03978037 33.69634892 36.7421875 38.26953125 C39.69143139 41.83617741 42.78159575 45.25990049 45.89453125 48.68359375 C49.90831026 53.09949534 53.81755043 57.60351494 57.6796875 62.15234375 C63.27441739 68.73318179 68.95735112 75.19765898 74.84375 81.51953125 C78.05969439 84.97369374 81.20517955 88.47435592 84.29296875 92.04296875 C86.33633431 94.3855915 88.41680859 96.69273422 90.5 99 C93.17048344 101.95869751 95.82298058 104.92926472 98.4375 107.9375 C102.09057956 112.13303221 105.84505549 116.23373553 109.59375 120.34375 C112.15148771 123.16722669 114.65769969 126.03056002 117.15625 128.90625 C119.40876457 131.46419027 121.70317092 133.9817898 124 136.5 C127.45643771 140.29009082 130.86843854 144.11056033 134.23046875 147.984375 C136.25114956 150.28607764 138.31312618 152.54764379 140.375 154.8125 C143.48528851 158.25378205 146.46478312 161.76321298 149.375 165.375 C152.65565873 169.43567549 156.0697072 173.30774464 159.625 177.125 C164.04714887 181.87703461 168.11117803 186.80419103 172 192 C173.99209808 194.57800927 175.94450654 196.94460288 178.25 199.24609375 C181.20223855 202.20252582 184.04694667 205.23809583 186.875 208.3125 C187.40456299 208.88718018 187.93412598 209.46186035 188.47973633 210.05395508 C191.80435991 213.67179305 195.07785517 217.32720488 198.29296875 221.04296875 C200.33633431 223.3855915 202.41680859 225.69273422 204.5 228 C207.15113994 230.93678465 209.78290171 233.88602542 212.375 236.875 C215.35917136 240.30332709 218.42207429 243.65602949 221.5 247 C226.65913341 252.61020045 231.70941709 258.29456853 236.63671875 264.109375 C241.86139324 270.26204788 247.15695766 276.30694385 252.6875 282.1875 C257.2285359 287.01592639 261.48235657 291.97794571 265.625 297.15625 C268.46464456 300.55635072 271.46388099 303.77586445 274.5 307 C278.32207891 311.05876728 282.01437447 315.14296809 285.5 319.5 C290.05644784 325.19135643 295.00792221 330.46412282 299.9921875 335.77734375 C302.8422557 338.81794331 305.60488811 341.92348424 308.328125 345.078125 C310.35758073 347.41105074 312.427647 349.70511245 314.5 352 C316.00042289 353.66628597 317.50044074 355.33293678 319 357 C319.64453125 357.71542969 320.2890625 358.43085938 320.953125 359.16796875 C331 370.45978261 331 370.45978261 331 373 C294.25999984 373.09162047 257.52001693 373.16207168 220.77992557 373.20426132 C216.43922103 373.20926395 212.09851671 373.21444126 207.7578125 373.21972656 C206.46161666 373.22130043 206.46161666 373.22130043 205.13923505 373.22290608 C191.16021006 373.24029589 177.1812511 373.27182571 163.20226523 373.30861118 C148.85105392 373.34606029 134.4998771 373.36824424 120.14861894 373.37635398 C111.29810451 373.38183353 102.44777671 373.39911982 93.59731975 373.43166587 C87.52245161 373.4528628 81.44767949 373.45918837 75.37277707 373.45400551 C71.87150187 373.45145174 68.37055204 373.4552761 64.86933517 373.4768219 C61.06349178 373.49680551 57.25843844 373.49190754 53.45257568 373.48101807 C52.35915478 373.49266943 51.26573387 373.5043208 50.13917899 373.51632524 C36.3947116 373.41046893 24.27601493 368.23744655 14.3125 358.8125 C2.06694378 345.8083695 -0.4840875 332.31675799 -0.36076355 314.82632446 C-0.36207563 313.45718055 -0.3647094 312.08803739 -0.36853105 310.71889818 C-0.37516917 306.99931208 -0.36333684 303.27999018 -0.34819686 299.56043768 C-0.33514309 295.53338036 -0.33963251 291.50633586 -0.34190369 287.47926331 C-0.34347056 280.516247 -0.33412294 273.55331555 -0.31719017 266.59032059 C-0.29272484 256.52322925 -0.28498722 246.45617862 -0.2812262 236.38906078 C-0.27467349 220.05264491 -0.25474447 203.71627419 -0.22631836 187.37988281 C-0.19874716 171.51823145 -0.17752859 155.65659239 -0.16479492 139.79492188 C-0.16400675 138.81587846 -0.16321858 137.83683504 -0.16240653 136.82812364 C-0.15849118 131.91615316 -0.15470012 127.00418259 -0.15097082 122.09221196 C-0.11991169 81.39477658 -0.06710819 40.69739089 0 0 Z " fill="#FE9B00" transform="translate(1272,142)"/>
<path d="M0 0 C1.31703208 -0.00581376 2.63406417 -0.01162753 3.99100631 -0.01761746 C7.63832387 -0.03314809 11.28521608 -0.02389852 14.93252646 -0.01050565 C18.90368051 -0.00033996 22.8747704 -0.01340596 26.84591532 -0.02347898 C33.80311942 -0.03791731 40.76019933 -0.03749271 47.71740913 -0.02729034 C58.06300249 -0.01216032 68.40849109 -0.01989539 78.75408374 -0.03212357 C97.2312682 -0.05318999 115.70839736 -0.0513596 134.18558709 -0.03980792 C150.35520903 -0.02974845 166.52481069 -0.02711761 182.69443512 -0.0318985 C184.30285529 -0.03235681 184.30285529 -0.03235681 185.94376879 -0.03282438 C190.29642741 -0.03406972 194.64908602 -0.03534332 199.00174462 -0.03666343 C239.83880134 -0.04890135 280.67582282 -0.03780255 321.5128741 -0.01627585 C357.79966556 0.00270679 394.08640087 0.00100829 430.37319183 -0.01811981 C471.13522691 -0.03953512 511.89723084 -0.04803346 552.65927076 -0.03567076 C557.00403054 -0.03438787 561.34879032 -0.03313651 565.69355011 -0.0318985 C566.7633525 -0.03158219 567.83315489 -0.03126588 568.93537553 -0.03093999 C585.09542704 -0.02638876 601.25545606 -0.03171368 617.41550446 -0.04181671 C635.78892663 -0.05324619 654.16228482 -0.05041056 672.53569901 -0.02869374 C682.82055929 -0.01693858 693.10528103 -0.01619625 703.39013775 -0.03127843 C710.25815697 -0.04023988 717.12606498 -0.03468042 723.99406771 -0.01725936 C727.90845959 -0.00773491 731.82257597 -0.00450973 735.73695928 -0.01888329 C739.95419761 -0.03421109 744.17076036 -0.01861606 748.38798523 0 C749.60222434 -0.00936466 750.81646344 -0.01872933 752.06749767 -0.02837777 C763.03854524 0.06877823 770.90613766 2.86543444 778.84243011 10.50727081 C783.48623839 15.51357045 784.31241217 20.02643879 784.10414886 26.69086456 C783.11348493 33.48398866 779.20423301 39.02661025 773.77263126 43.12373903 C765.7292576 48.46225406 757.82540292 49.07951401 748.38798523 49.00672913 C746.4124371 49.01544977 746.4124371 49.01544977 744.39697891 49.02434659 C740.74966136 49.03987721 737.10276914 49.03062765 733.45545877 49.01723478 C729.48430472 49.00706909 725.51321483 49.02013508 721.54206991 49.03020811 C714.58486581 49.04464644 707.6277859 49.04422184 700.6705761 49.03401947 C690.32498274 49.01888945 679.97949414 49.02662452 669.63390149 49.0388527 C651.15671703 49.05991912 632.67958787 49.05808872 614.20239814 49.04653705 C598.0327762 49.03647758 581.86317454 49.03384674 565.69355011 49.03862762 C564.08512994 49.03908594 564.08512994 49.03908594 562.44421644 49.0395535 C558.09155782 49.04079884 553.73889921 49.04207244 549.38624061 49.04339256 C508.54918389 49.05563047 467.71216241 49.04453168 426.87511113 49.02300497 C390.58831967 49.00402234 354.30158436 49.00572084 318.0147934 49.02484894 C277.25275832 49.04626424 236.49075439 49.05476259 195.72871447 49.04239988 C191.38395469 49.041117 187.03919491 49.03986564 182.69443512 49.03862762 C181.62463273 49.03831132 180.55483034 49.03799501 179.4526097 49.03766911 C163.29255819 49.03311789 147.13252917 49.03844281 130.97248077 49.04854584 C112.5990586 49.05997532 94.22570041 49.05713969 75.85228622 49.03542286 C65.56742594 49.02366771 55.2827042 49.02292538 44.99784748 49.03800756 C38.12982826 49.046969 31.26192025 49.04140955 24.39391752 49.02398848 C20.47952564 49.01446404 16.56540926 49.01123886 12.65102595 49.02561241 C8.43378762 49.04094022 4.21722487 49.02534518 0 49.00672913 C-1.21423911 49.01609379 -2.42847821 49.02545846 -3.67951244 49.0351069 C-13.24291519 48.95041654 -21.65418585 46.99531626 -28.76694489 40.25336456 C-33.87892203 34.44076111 -36.18962624 28.94548896 -35.78647614 21.14398956 C-34.61579447 14.70999927 -30.47254517 9.84381048 -25.38464603 5.91424009 C-17.40138605 0.49560411 -9.41198012 -0.0725887 0 0 Z " fill="#FEFEFE" transform="translate(581.3060073852539,885.4966354370117)"/>
<path d="M0 0 C1.1500979 -0.00465992 2.3001958 -0.00931984 3.48514515 -0.01412097 C6.67823329 -0.02401411 9.87098145 -0.0204826 13.06406127 -0.01128729 C16.53761766 -0.00457918 20.01112797 -0.01524275 23.48467457 -0.02368313 C29.57282966 -0.03606209 35.66090769 -0.03725718 41.74907112 -0.0311327 C50.80241333 -0.02204964 59.85568415 -0.03006723 68.90902087 -0.04142394 C85.07795942 -0.06110543 101.24686595 -0.06343541 117.41581362 -0.05822874 C131.56665424 -0.0536741 145.71748217 -0.05426757 159.86832237 -0.06006908 C161.76544155 -0.06082595 163.66256073 -0.06158193 165.5596799 -0.06233703 C168.41836278 -0.06348221 171.27704565 -0.06463208 174.13572852 -0.06579627 C200.7186554 -0.07650375 227.30157805 -0.08122399 253.88450623 -0.07332611 C255.38809149 -0.07288035 255.38809149 -0.07288035 256.92205222 -0.07242559 C265.06251025 -0.06997657 273.20296822 -0.06736503 281.34342619 -0.06474145 C313.09828507 -0.05463865 344.85309108 -0.06299405 376.60794258 -0.086236 C412.27489572 -0.11229897 447.94181701 -0.12515909 483.60878003 -0.11804825 C487.4106872 -0.11733217 491.21259438 -0.11665779 495.01450157 -0.1160078 C495.95064529 -0.115838 496.886789 -0.11566819 497.85130071 -0.11549323 C511.99247198 -0.11318872 526.13361372 -0.12117449 540.27477837 -0.13429928 C556.35435123 -0.14919643 572.43385482 -0.15007263 588.51342617 -0.13222837 C597.51429967 -0.12265128 606.5150117 -0.12412888 615.51587449 -0.14146306 C621.52685009 -0.15193219 627.53770236 -0.14788092 633.54866576 -0.13198302 C636.97444125 -0.12332982 640.39989975 -0.12097832 643.82565926 -0.13625234 C647.51699693 -0.14934311 651.20747314 -0.13790791 654.89877319 -0.12025452 C655.96087535 -0.12990503 657.0229775 -0.13955554 658.11726457 -0.14949849 C667.76276003 -0.05445625 674.88893973 2.92391389 681.91116524 9.54047298 C686.44627002 14.55463813 687.19146534 20.01364399 686.98538399 26.53656673 C685.93749922 33.80190113 682.25299929 39.45071102 676.71194649 44.12641048 C669.52410345 48.34450484 663.18952828 48.81290867 655.03020096 48.76342678 C653.87924881 48.7683863 652.72829666 48.77334581 651.54246718 48.77845562 C648.35164097 48.78916652 645.16115213 48.78649049 641.97032937 48.77812212 C638.49746647 48.77231013 635.02465369 48.78386722 631.55180442 48.7931838 C625.46639488 48.80709528 619.38105967 48.80983006 613.29563713 48.80522442 C604.24633341 48.79839338 595.19710498 48.80864854 586.14781171 48.82218198 C569.04589376 48.84710055 551.94400701 48.85161059 534.84207381 48.84971601 C521.63677635 48.84834334 508.43148972 48.85215861 495.22619438 48.85964108 C493.3295037 48.86069141 491.43281303 48.86173902 489.53612234 48.86278394 C488.59462475 48.86330328 487.65312716 48.86382263 486.68309934 48.86435771 C485.26828053 48.86513792 485.26828053 48.86513792 483.82487953 48.8659339 C482.88009759 48.86645789 481.93531566 48.86698188 480.96190397 48.86752175 C454.3864793 48.88210656 427.81105862 48.89038684 401.23563004 48.88577175 C400.23363109 48.8855998 399.23163215 48.88542784 398.1992696 48.88525068 C393.12065542 48.88436178 388.04204125 48.88341696 382.96342708 48.88245267 C381.95478468 48.88226163 380.94614228 48.8820706 379.90693496 48.88187378 C377.86721495 48.88148669 375.82749495 48.88109636 373.78777494 48.8807028 C342.04616042 48.87473211 310.30461879 48.89017352 278.56302071 48.92230892 C242.90703606 48.95837659 207.25109764 48.97771986 171.59509361 48.97277021 C167.79402662 48.97230023 163.99295963 48.97188998 160.19189262 48.97151852 C159.25596283 48.97141613 158.32003304 48.97131374 157.35574174 48.97120826 C143.22075401 48.97001291 129.08581619 48.98198728 114.9508419 49.0006628 C98.87753373 49.02188895 82.80433032 49.02576073 66.73101749 49.00636321 C57.73475727 48.99602838 48.7387525 48.99952896 39.74251532 49.02289407 C33.73337535 49.03711837 27.72442454 49.03317024 21.71529736 49.0144483 C18.29135565 49.00429136 14.8679114 49.0019834 11.44400062 49.02176899 C7.75285003 49.03888097 4.06303656 49.02526623 0.3719368 49.00393581 C-0.68725249 49.01621334 -1.74644179 49.02849087 -2.83772773 49.04114044 C-10.70606252 48.94594505 -17.44606887 47.06633833 -23.33718746 41.60858282 C-24.86112059 39.94407465 -26.1534978 38.24317436 -27.42477226 36.38031673 C-28.04352226 35.49344173 -28.66227226 34.60656673 -29.29977226 33.69281673 C-31.44235809 27.3840918 -31.63676174 20.25115274 -28.92477226 14.06781673 C-22.26706476 2.77559199 -12.2872641 -0.07760452 0 0 Z " fill="#FEFEFE" transform="translate(576.4247722625732,1167.619683265686)"/>
<path d="M0 0 C1.08730836 -0.00320648 2.17461671 -0.00641296 3.2948738 -0.0097166 C6.96363457 -0.01806381 10.63223409 -0.01207577 14.30099773 -0.00622082 C16.94773845 -0.00923935 19.59446739 -0.01304614 22.24120444 -0.01781338 C28.00885688 -0.02658748 33.77647382 -0.02788321 39.54413128 -0.02431011 C48.1208762 -0.01901074 56.69758665 -0.0250907 65.27432783 -0.03339304 C81.48264657 -0.04865088 97.69094973 -0.05033626 113.89927415 -0.04787002 C126.41434531 -0.04603878 138.92941134 -0.04779339 151.44448185 -0.05209446 C153.24124416 -0.05269685 155.03800646 -0.05329805 156.83476877 -0.05389806 C159.54218513 -0.0548053 162.24960149 -0.05571396 164.95701785 -0.05663041 C190.13672277 -0.06506276 215.31642576 -0.06939372 240.4961319 -0.06522369 C241.92062859 -0.06498913 241.92062859 -0.06498913 243.37390299 -0.06474983 C248.1873898 -0.06394402 253.0008766 -0.06309825 257.8143634 -0.06223653 C258.77036939 -0.06206544 259.72637537 -0.06189435 260.71135124 -0.06171808 C262.64462889 -0.06137142 264.57790654 -0.06102289 266.51118419 -0.06067249 C296.59410299 -0.05531508 326.67699248 -0.06324512 356.75990582 -0.08170605 C390.54402167 -0.10241391 424.32811937 -0.11315104 458.11224192 -0.10913056 C461.71335518 -0.1087352 465.31446844 -0.10837366 468.9155817 -0.10803318 C470.24564779 -0.10789708 470.24564779 -0.10789708 471.60258389 -0.10775824 C484.99904983 -0.10659137 498.39549745 -0.11324736 511.79195881 -0.1238451 C527.02509126 -0.13588338 542.25818332 -0.13747196 557.49131636 -0.12505493 C566.01912702 -0.11841507 574.54684118 -0.12008327 583.07464417 -0.13364345 C588.76907996 -0.14186932 594.46344325 -0.13921472 600.15787311 -0.12766818 C603.40368768 -0.12139315 606.64927552 -0.12150593 609.89508627 -0.13153151 C613.39156399 -0.14158445 616.88753054 -0.13326043 620.38398743 -0.12025452 C621.39153185 -0.12756386 622.39907628 -0.13487321 623.43715236 -0.14240405 C632.41133435 -0.07292157 638.98781559 2.06408547 645.61513042 8.31306934 C650.6223369 13.81878089 652.08957783 19.11053865 651.75184917 26.52010059 C650.65594383 34.59519259 646.87918582 39.30524212 640.89247417 44.62556934 C634.54339977 48.74308727 627.8354696 48.54155692 620.51541519 48.5117445 C618.88099113 48.51700361 618.88099113 48.51700361 617.21354839 48.52236897 C613.54898308 48.53170001 609.88457608 48.52675517 606.22000408 48.52190113 C603.57153708 48.52563651 600.92308194 48.53015772 598.27461904 48.53563178 C592.50939381 48.54593555 586.74420215 48.54877491 580.97896862 48.54671955 C572.40586031 48.5436706 563.83278918 48.55199111 555.2596881 48.5624688 C539.05818332 48.5818163 522.8566912 48.58743728 506.65517623 48.58858292 C494.14587346 48.5895017 481.63657566 48.59361681 469.12727451 48.59998417 C465.52763016 48.60177922 461.92798579 48.60355885 458.32834142 48.60533392 C457.43348755 48.60577602 456.53863368 48.60621812 455.61666302 48.60667361 C430.44481454 48.61898269 405.2729678 48.62687465 380.10111618 48.62598705 C378.67741754 48.62594032 378.67741754 48.62594032 377.22495731 48.62589264 C372.41425216 48.62572642 367.60354701 48.62552834 362.79284186 48.62532322 C361.83740055 48.62528333 360.88195924 48.62524344 359.89756517 48.62520234 C357.96543085 48.62512147 356.03329653 48.62503787 354.10116221 48.62495156 C324.03133607 48.62372568 293.961555 48.63874566 263.89174175 48.66609669 C230.11713233 48.69680481 196.34255253 48.71403 162.56792825 48.71217024 C158.96796954 48.71202098 155.36801082 48.71192357 151.7680521 48.71186161 C150.88163438 48.7118383 149.99521666 48.71181499 149.08193779 48.71179098 C134.80629783 48.71172939 120.53069695 48.72451053 106.25506861 48.74172614 C91.91375082 48.75866357 77.57249034 48.76067125 63.2311681 48.7475075 C54.70776141 48.7401061 46.1845286 48.74381172 37.66114027 48.76339218 C31.96971257 48.77536396 26.27841123 48.77283247 20.5869894 48.75845118 C17.34287657 48.75066436 14.09916911 48.75140242 10.85506702 48.76536588 C7.36037812 48.77941557 3.86659426 48.76895562 0.3719368 48.75225353 C-0.63503593 48.76218989 -1.64200867 48.77212625 -2.67949572 48.78236371 C-10.13423958 48.70672376 -15.42929984 47.03934798 -21.08018208 42.10603809 C-27.02524251 35.19035555 -29.15625063 30.18065827 -28.92002583 20.99275684 C-28.06495643 13.2082939 -23.65114796 8.90841559 -17.93565083 3.91853809 C-12.1716441 -0.22221547 -6.86322358 -0.0297408 0 0 Z " fill="#FEFEFE" transform="translate(574.6192445755005,739.7455244064331)"/>
<path d="M0 0 C1.57941253 -0.00570851 1.57941253 -0.00570851 3.19073239 -0.01153234 C6.7426028 -0.02189352 10.29431474 -0.01793357 13.84619617 -0.01409245 C16.40901195 -0.01854239 18.97182634 -0.02385562 21.5346387 -0.02996117 C27.11897956 -0.0418171 32.70328772 -0.04617359 38.28764057 -0.04563999 C46.59192089 -0.04484739 54.89615989 -0.05539012 63.20042918 -0.06805556 C79.75925409 -0.09280823 96.318069 -0.10157971 112.87690986 -0.10659205 C113.73468846 -0.10685322 114.59246707 -0.1071144 115.47623897 -0.10738349 C116.33572171 -0.10764376 117.19520445 -0.10790404 118.08073213 -0.1081722 C127.60078922 -0.11125321 137.12084353 -0.11775751 146.6408987 -0.12438488 C175.38973543 -0.14403417 204.13856915 -0.16043772 232.88741302 -0.16326141 C234.26704825 -0.16340251 234.26704825 -0.16340251 235.67455489 -0.16354645 C239.40200601 -0.16392493 243.12945712 -0.16428893 246.85690823 -0.16464943 C249.6624857 -0.16492115 252.46806317 -0.16519783 255.27364063 -0.16547489 C256.20071077 -0.16556291 257.1277809 -0.16565094 258.08294407 -0.16574163 C287.21262016 -0.16864713 316.34222991 -0.19074266 345.47188282 -0.22699833 C378.18881407 -0.26771766 410.9057001 -0.29141993 443.62265807 -0.29172093 C447.11090585 -0.29181775 450.59915362 -0.29198447 454.08740139 -0.29220104 C454.94631426 -0.29224516 455.80522712 -0.29228927 456.69016765 -0.29233472 C470.51735535 -0.29345497 484.34447662 -0.3108695 498.17164293 -0.33402036 C512.06740521 -0.35685455 525.96307767 -0.36109353 539.85885181 -0.34647106 C548.11525512 -0.33831509 556.37137565 -0.34402635 564.62774471 -0.36965191 C570.79141999 -0.38723941 576.95479911 -0.37871976 583.11846528 -0.36000682 C585.61309669 -0.35650035 588.10775721 -0.36147045 590.60235044 -0.37571125 C593.99145444 -0.39381361 597.37911324 -0.3811208 600.76817322 -0.36076355 C602.22347845 -0.37960861 602.22347845 -0.37960861 603.7081838 -0.39883438 C610.58500685 -0.31031857 615.98175785 1.36206146 621.69868946 5.26006222 C627.73438277 11.60184824 630.18385058 17.67152294 630.01900196 26.40849972 C629.31121316 32.70954636 626.29963203 38.90127452 621.69868946 43.26006222 C614.75281335 47.66632317 608.91606172 48.9875512 600.78213978 48.88926792 C599.72342887 48.89653513 598.66471796 48.90380233 597.5739249 48.91128975 C594.03222176 48.92951296 590.49160511 48.91219571 586.94991016 48.89498043 C584.38277509 48.90074262 581.81564413 48.90868439 579.2485218 48.91861665 C573.67017451 48.93664381 568.09206931 48.93614682 562.51371098 48.92338085 C554.21847642 48.90444906 545.92344566 48.91414705 537.62821242 48.92942239 C522.81203053 48.95574057 507.99595649 48.95347337 493.17976436 48.93902783 C480.21386268 48.9264484 467.24800053 48.9231673 454.282094 48.92914104 C452.99184042 48.92971393 452.99184042 48.92971393 451.67552111 48.93029839 C448.18378542 48.9318551 444.69204974 48.9334471 441.20031409 48.93509721 C408.44735755 48.95039109 375.69446969 48.93652671 342.94152375 48.90961273 C313.84459167 48.88588481 284.74776901 48.88800796 255.6508379 48.91191769 C222.95766458 48.93869277 190.26455193 48.94930644 157.57136917 48.93385637 C154.08600777 48.93225279 150.60064635 48.93068859 147.11528492 48.92914104 C146.25710455 48.92874566 145.39892419 48.92835027 144.51473836 48.9279429 C131.5572094 48.92225633 118.59972431 48.92890544 105.64220142 48.94153881 C90.90840792 48.95583242 76.17473909 48.95226675 61.44096112 48.92513509 C53.19565447 48.91045241 44.95061783 48.90949675 36.70531819 48.92836596 C30.55008531 48.94089825 24.39517099 48.9273077 18.23997724 48.90349309 C15.74886734 48.89790155 13.25772134 48.90076349 10.76663458 48.91287203 C7.3823204 48.92806217 3.99947651 48.91249801 0.61523914 48.88926792 C-0.35353511 48.90097375 -1.32230936 48.91267958 -2.32044041 48.92474014 C-9.19169831 48.83037704 -14.58840981 47.15363868 -20.30131054 43.26006222 C-26.54852735 36.69631413 -28.861292 30.43005803 -28.67240429 21.39678097 C-27.96458741 15.41386567 -25.69640929 10.58755737 -21.36381054 6.37724972 C-14.38788868 0.90749281 -8.69283108 -0.03386082 0 0 Z " fill="#FEFEFE" transform="translate(574.3013105392456,1023.7399377822876)"/>
</svg>
