<svg width="100" height="100" version="1.1" xmlns="http://www.w3.org/2000/svg" desc="Created with imagetracer.js version 1.2.6" ><path fill="rgb(0,0,0)" stroke="rgb(0,0,0)" stroke-width="1" opacity="0" d="M 0 0 L 100 0 L 100 100 L 0 100 L 0 0 Z M 61 4 L 57 5 L 55 5 Q 43 10 34 18 L 32 19 L 33 11 L 31 9 L 13 35 L 12 39 L 21 38 L 23 38 L 28 36 L 30 37 L 36 35 L 38 35 L 44 35 L 44 32 L 35 28 L 50 19 L 63 16 L 65 16 L 74 18 Q 80 23 82 33 L 81 49 L 77 56 Q 75 60 80 59 Q 89 48 89 28 L 89 26 Q 88 17 83 12 Q 80 13 81 11 L 73 5 L 61 4 Z M 21 41 L 12 55 Q 13 61 10 64 Q 8 80 15 88 L 25 95 Q 31 94 34 97 L 36 96 L 38 97 Q 48 95 56 90 Q 58 91 57 88 L 66 83 L 66 85 L 66 87 L 65 89 L 66 94 L 68 93 L 82 75 L 87 67 L 87 64 Q 85 66 80 65 L 78 65 L 77 66 L 69 66 L 66 67 L 56 67 L 55 69 L 64 75 L 50 82 L 43 84 L 29 84 L 25 82 Q 19 78 17 70 Q 16 53 23 44 Q 24 40 21 41 Z " /><path fill="rgb(0,80,255)" stroke="rgb(0,80,255)" stroke-width="1" opacity="0.42745098039215684" d="M 60.5 4 L 67 4.5 L 60.5 5 L 60.5 4 Z " /><path fill="rgb(0,80,255)" stroke="rgb(0,80,255)" stroke-width="1" opacity="0.42745098039215684" d="M 54.5 5 L 55 7 Q 40.2 10.8 31.5 22 L 31 19.5 L 32 10.5 L 28 13.5 L 25.5 17 L 27 14.5 L 30.5 9 L 33 10.5 L 32 18.5 L 33.5 18 Q 42.5 10 54.5 5 Z " /><path fill="rgb(0,80,255)" stroke="rgb(0,80,255)" stroke-width="1" opacity="0.42745098039215684" d="M 56.5 5 L 59 5.5 L 56.5 6 L 56.5 5 Z " /><path fill="rgb(0,80,255)" stroke="rgb(0,80,255)" stroke-width="1" opacity="0.42745098039215684" d="M 70.5 5 Q 77.6 5.9 81 10.5 L 79.5 11 Q 76.8 6.8 70.5 6 L 70.5 5 Z " /><path fill="rgb(0,80,255)" stroke="rgb(0,80,255)" stroke-width="1" opacity="0.42745098039215684" d="M 82.5 13 Q 84.8 12.3 84 14.5 L 89 24.5 L 87 25 Q 86.8 16.6 82.5 13 Z " /><path fill="rgb(0,80,255)" stroke="rgb(0,80,255)" stroke-width="1" opacity="0.42745098039215684" d="M 62.5 15 Q 64.8 14.3 64 16.5 L 62.5 15 Z " /><path fill="rgb(0,80,255)" stroke="rgb(0,80,255)" stroke-width="1" opacity="0.42745098039215684" d="M 56.5 16 L 60 16.5 L 56.5 17 L 56.5 16 Z " /><path fill="rgb(0,80,255)" stroke="rgb(0,80,255)" stroke-width="1" opacity="0.42745098039215684" d="M 67.5 16 L 71 16.5 L 67.5 17 L 67.5 16 Z " /><path fill="rgb(0,80,255)" stroke="rgb(0,80,255)" stroke-width="1" opacity="0.42745098039215684" d="M 52.5 17 L 55 17.5 L 50.5 19 L 50.5 18 L 52.5 17 Z " /><path fill="rgb(0,80,255)" stroke="rgb(0,80,255)" stroke-width="1" opacity="0.42745098039215684" d="M 24.5 18 L 23 20.5 L 15.5 33 L 15 31.5 L 24.5 18 Z " /><path fill="rgb(0,80,255)" stroke="rgb(0,80,255)" stroke-width="1" opacity="0.42745098039215684" d="M 74.5 18 Q 79.5 21 81 27.5 L 80 27.5 L 74.5 18 Z " /><path fill="rgb(0,80,255)" stroke="rgb(0,80,255)" stroke-width="1" opacity="0.42745098039215684" d="M 47.5 19 L 49 19.5 L 40.5 24 L 41.5 22 L 47.5 19 Z " /><path fill="rgb(0,80,255)" stroke="rgb(0,80,255)" stroke-width="1" opacity="0.42745098039215684" d="M 38.5 24 L 37.5 26 L 35 27.5 L 40 30.5 L 38.5 31 L 34 27.5 L 38.5 24 Z " /><path fill="rgb(0,80,255)" stroke="rgb(0,80,255)" stroke-width="1" opacity="0.42745098039215684" d="M 88.5 27 L 89 30.5 L 88 30.5 L 88.5 27 Z " /><path fill="rgb(0,80,255)" stroke="rgb(0,80,255)" stroke-width="1" opacity="0.42745098039215684" d="M 20.5 41 L 21 42.5 Q 14.5 48 12.5 58 L 12 54.5 L 20.5 41 Z " /><path fill="rgb(0,80,255)" stroke="rgb(0,80,255)" stroke-width="1" opacity="0.42745098039215684" d="M 22.5 41 L 23 43.5 L 19.5 50 L 19 48.5 L 22.5 41 Z " /><path fill="rgb(0,80,255)" stroke="rgb(0,80,255)" stroke-width="1" opacity="0.42745098039215684" d="M 18.5 51 L 19 53.5 Q 15.9 59.4 16.5 69 L 16 57.5 L 18.5 51 Z " /><path fill="rgb(0,80,255)" stroke="rgb(0,80,255)" stroke-width="1" opacity="0.42745098039215684" d="M 10.5 63 L 11 68.5 L 10 68.5 L 10.5 63 Z " /><path fill="rgb(0,80,255)" stroke="rgb(0,80,255)" stroke-width="1" opacity="0.42745098039215684" d="M 79.5 65 L 84 65.5 L 79.5 66 L 79.5 65 Z " /><path fill="rgb(0,80,255)" stroke="rgb(0,80,255)" stroke-width="1" opacity="0.42745098039215684" d="M 68.5 66 L 75 66.5 L 68.5 67 L 68.5 66 Z " /><path fill="rgb(0,80,255)" stroke="rgb(0,80,255)" stroke-width="1" opacity="0.42745098039215684" d="M 55.5 67 L 64 67.5 L 55.5 68 L 55.5 67 Z " /><path fill="rgb(0,81,255)" stroke="rgb(0,81,255)" stroke-width="1" opacity="0.996078431372549" d="M 59.5 5 L 69.5 5 Q 77.3 7.3 82 12.5 Q 88.6 19.2 88 32 L 82 32 L 82 29.5 Q 80.1 21.9 74.5 18 L 70.5 16 L 62.5 15 L 47.5 19 L 34 27.5 L 40 31.5 L 16.5 32 L 18 29.5 Q 23.2 18.2 31.5 10 L 32 13.5 Q 29.3 15.3 31 21.5 L 38.5 15 Q 46.8 7.8 59.5 5 Z " /><path fill="rgb(0,81,255)" stroke="rgb(0,81,255)" stroke-width="1" opacity="0.996078431372549" d="M 21.5 41 L 22 43.5 L 17 53.5 L 16 68 L 11 68 L 11 61.5 Q 14 49 21.5 41 Z " /><path fill="rgb(0,81,255)" stroke="rgb(0,81,255)" stroke-width="1" opacity="0.996078431372549" d="M 84.5 65 L 87 65.5 L 84.5 69 L 83.5 68 L 64 67.5 L 83.5 66 L 84.5 65 Z " /><path fill="rgb(0,148,255)" stroke="rgb(0,148,255)" stroke-width="1" opacity="0.396078431372549" d="M 88.5 31 L 89 34.5 L 88 34.5 L 88.5 31 Z " /><path fill="rgb(0,148,255)" stroke="rgb(0,148,255)" stroke-width="1" opacity="0.396078431372549" d="M 42.5 32 L 44 35 L 38 34.5 L 43 33.5 L 42.5 32 Z " /><path fill="rgb(0,148,255)" stroke="rgb(0,148,255)" stroke-width="1" opacity="0.396078431372549" d="M 14.5 33 L 14 34.5 L 12.5 37 L 13 35.5 L 14.5 33 Z " /><path fill="rgb(0,148,255)" stroke="rgb(0,148,255)" stroke-width="1" opacity="0.396078431372549" d="M 82.5 34 L 83 43.5 L 81.5 48 L 81 43.5 L 82 42.5 L 82.5 34 Z " /><path fill="rgb(0,148,255)" stroke="rgb(0,148,255)" stroke-width="1" opacity="0.396078431372549" d="M 29.5 35 L 34 35.5 L 29.5 36 L 29.5 35 Z " /><path fill="rgb(0,148,255)" stroke="rgb(0,148,255)" stroke-width="1" opacity="0.396078431372549" d="M 23.5 36 L 27 36.5 L 22.5 38 L 23.5 36 Z " /><path fill="rgb(0,148,255)" stroke="rgb(0,148,255)" stroke-width="1" opacity="0.396078431372549" d="M 18.5 37 L 21 37.5 L 18.5 38 L 18.5 37 Z " /><path fill="rgb(0,148,255)" stroke="rgb(0,148,255)" stroke-width="1" opacity="0.396078431372549" d="M 12.5 38 L 17 38.5 L 12.5 39 L 12.5 38 Z " /><path fill="rgb(0,148,255)" stroke="rgb(0,148,255)" stroke-width="1" opacity="0.396078431372549" d="M 87.5 38 L 88 40.5 L 87 40.5 L 87.5 38 Z " /><path fill="rgb(0,148,255)" stroke="rgb(0,148,255)" stroke-width="1" opacity="0.396078431372549" d="M 86.5 42 L 87 44.5 L 86 44.5 L 86.5 42 Z " /><path fill="rgb(0,148,255)" stroke="rgb(0,148,255)" stroke-width="1" opacity="0.396078431372549" d="M 85.5 46 L 86 47.5 L 79.5 59 Q 75.3 60.3 77 55.5 L 80.5 49 L 81 50.5 L 78 58 Q 80.7 59.1 80 56.5 L 85.5 46 Z " /><path fill="rgb(0,148,255)" stroke="rgb(0,148,255)" stroke-width="1" opacity="0.396078431372549" d="M 55.5 68 L 57.5 71 L 55.5 68 Z " /><path fill="rgb(0,148,255)" stroke="rgb(0,148,255)" stroke-width="1" opacity="0.396078431372549" d="M 85.5 68 L 84.5 70 L 85.5 68 Z " /><path fill="rgb(0,148,255)" stroke="rgb(0,148,255)" stroke-width="1" opacity="0.396078431372549" d="M 10.5 70 Q 10.5 83.5 18 89.5 L 15 87.5 L 10 77.5 L 10.5 70 Z " /><path fill="rgb(0,148,255)" stroke="rgb(0,148,255)" stroke-width="1" opacity="0.396078431372549" d="M 17.5 70 L 19 74.5 L 18 74.5 L 17.5 70 Z " /><path fill="rgb(0,148,255)" stroke="rgb(0,148,255)" stroke-width="1" opacity="0.396078431372549" d="M 83.5 71 L 82 73.5 L 67.5 93 L 65.5 94 L 65 92 L 70 88.5 L 83.5 71 Z " /><path fill="rgb(0,148,255)" stroke="rgb(0,148,255)" stroke-width="1" opacity="0.396078431372549" d="M 61.5 72 L 62.5 74 L 61.5 72 Z " /><path fill="rgb(0,148,255)" stroke="rgb(0,148,255)" stroke-width="1" opacity="0.396078431372549" d="M 64.5 74 L 63.5 76 L 50.5 82 L 50.5 81 L 64.5 74 Z " /><path fill="rgb(0,148,255)" stroke="rgb(0,148,255)" stroke-width="1" opacity="0.396078431372549" d="M 19.5 76 L 24 81.5 L 20 78.5 L 19.5 76 Z " /><path fill="rgb(0,148,255)" stroke="rgb(0,148,255)" stroke-width="1" opacity="0.396078431372549" d="M 66.5 81 L 67 86 L 65 85.5 L 66 83.5 L 64.5 84 L 58.5 88 L 59.5 86 L 66.5 81 Z " /><path fill="rgb(0,148,255)" stroke="rgb(0,148,255)" stroke-width="1" opacity="0.396078431372549" d="M 25.5 82 L 28 83.5 L 26.5 83 L 25.5 82 Z " /><path fill="rgb(0,148,255)" stroke="rgb(0,148,255)" stroke-width="1" opacity="0.396078431372549" d="M 46.5 82 L 49 82.5 L 43.5 84 L 43.5 83 L 46.5 82 Z " /><path fill="rgb(0,148,255)" stroke="rgb(0,148,255)" stroke-width="1" opacity="0.396078431372549" d="M 30.5 84 L 42 84.5 L 30.5 85 L 30.5 84 Z " /><path fill="rgb(0,148,255)" stroke="rgb(0,148,255)" stroke-width="1" opacity="0.396078431372549" d="M 56.5 88 L 57 90 L 53.5 91 L 54.5 89 L 56.5 88 Z " /><path fill="rgb(0,148,255)" stroke="rgb(0,148,255)" stroke-width="1" opacity="0.396078431372549" d="M 65.5 88 L 66 90.5 L 65 90.5 L 65.5 88 Z " /><path fill="rgb(0,148,255)" stroke="rgb(0,148,255)" stroke-width="1" opacity="0.396078431372549" d="M 19.5 90 L 27 94.5 L 24.5 95 L 19.5 90 Z " /><path fill="rgb(0,148,255)" stroke="rgb(0,148,255)" stroke-width="1" opacity="0.396078431372549" d="M 46.5 93 L 48 93.5 L 37.5 97 L 38.5 95 Q 44.2 95.7 46.5 93 Z " /><path fill="rgb(0,144,255)" stroke="rgb(0,144,255)" stroke-width="1" opacity="0.996078431372549" d="M 16.5 32 L 41.5 32 L 43 33.5 L 12.5 38 L 14 35.5 L 16.5 32 Z " /><path fill="rgb(0,144,255)" stroke="rgb(0,144,255)" stroke-width="1" opacity="0.996078431372549" d="M 82.5 32 Q 90.8 29.3 88 37.5 L 86 45.5 L 80 58 Q 77.3 59.1 78 56.5 L 83 43.5 L 83 33.5 L 82.5 32 Z " /><path fill="rgb(0,144,255)" stroke="rgb(0,144,255)" stroke-width="1" opacity="0.996078431372549" d="M 11.5 68 Q 16 67 17 69.5 Q 17.9 78.1 23.5 82 Q 29.4 86.7 41.5 85 Q 55.4 81.9 65 74.5 L 56 68.5 L 84 68 L 83 71.5 L 66.5 92 L 65 91.5 L 67 81.5 L 64.5 83 L 48.5 93 L 37.5 96 L 31.5 96 Q 21.8 93.7 16 87.5 L 12 80.5 L 10 69.5 L 11.5 68 Z " /></svg>